<!DOCTYPE svg SYSTEM "sacrix_master_logo.dtd">
<svg width="109" height="31" viewBox="0 0 109 31" fill="none" xmlns="http://www.w3.org/2000/svg">
<path d="M0 19.6081L5.68548 18.8333C5.92742 19.8183 6.41801 20.5691 7.15726 21.0856C7.89651 21.5901 8.93145 21.8423 10.2621 21.8423C11.7272 21.8423 12.8293 21.6021 13.5685 21.1216C14.0659 20.7853 14.3145 20.3348 14.3145 19.7703C14.3145 19.3859 14.1801 19.0676 13.9113 18.8153C13.629 18.5751 12.9973 18.3529 12.0161 18.1486C7.44624 17.2477 4.54973 16.4249 3.32661 15.6802C1.63306 14.6471 0.78629 13.2117 0.78629 11.3739C0.78629 9.71622 1.51882 8.32282 2.98387 7.19369C4.44892 6.06456 6.72043 5.5 9.79839 5.5C12.7285 5.5 14.9059 5.92643 16.3306 6.77928C17.7554 7.63213 18.7366 8.89339 19.2742 10.5631L13.9315 11.4459C13.703 10.7012 13.2661 10.1306 12.621 9.73423C11.9892 9.33784 11.082 9.13964 9.89919 9.13964C8.40726 9.13964 7.33871 9.32583 6.69355 9.6982C6.26344 9.96246 6.04839 10.3048 6.04839 10.7252C6.04839 11.0856 6.23656 11.3919 6.6129 11.6441C7.12366 11.9805 8.88441 12.455 11.8952 13.0676C14.9194 13.6802 17.0296 14.4309 18.2258 15.3198C19.4086 16.2207 20 17.476 20 19.0856C20 20.8393 19.1801 22.3468 17.5403 23.6081C15.9005 24.8694 13.4745 25.5 10.2621 25.5C7.34543 25.5 5.0336 24.9715 3.32661 23.9144C1.63306 22.8574 0.524194 21.4219 0 19.6081Z" fill="white"/>
<path d="M27.4122 11.7703L22.5527 10.9414C23.099 9.09159 24.0391 7.72222 25.3731 6.83333C26.7071 5.94444 28.6891 5.5 31.319 5.5C33.7075 5.5 35.4861 5.77027 36.655 6.31081C37.8238 6.83934 38.6433 7.51802 39.1133 8.34685C39.5961 9.16366 39.8375 10.6712 39.8375 12.8694L39.7803 18.7793C39.7803 20.461 39.8629 21.7042 40.0281 22.509C40.206 23.3018 40.5299 24.1547 41 25.0676H35.7021C35.5624 24.7312 35.3908 24.2327 35.1876 23.5721C35.0986 23.2718 35.0351 23.0736 34.997 22.9775C34.0822 23.8183 33.104 24.4489 32.0622 24.8694C31.0204 25.2898 29.9087 25.5 28.7272 25.5C26.6436 25.5 24.9983 24.9655 23.7914 23.8964C22.5971 22.8273 22 21.476 22 19.8423C22 18.7613 22.2732 17.8003 22.8195 16.9595C23.3658 16.1066 24.1281 15.458 25.1063 15.0135C26.0973 14.5571 27.5202 14.1607 29.3751 13.8243C31.878 13.3799 33.6122 12.9655 34.5777 12.5811V12.0766C34.5777 11.1036 34.3236 10.4129 33.8154 10.0045C33.3073 9.58408 32.348 9.37387 30.9378 9.37387C29.985 9.37387 29.2417 9.55405 28.7081 9.91441C28.1745 10.2628 27.7426 10.8814 27.4122 11.7703ZM34.5777 15.8784C33.8917 16.0946 32.8054 16.3529 31.319 16.6532C29.8325 16.9535 28.8606 17.2477 28.4032 17.536C27.7044 18.0045 27.3551 18.5991 27.3551 19.3198C27.3551 20.0285 27.6346 20.6411 28.1936 21.1577C28.7526 21.6742 29.4641 21.9324 30.328 21.9324C31.2935 21.9324 32.2146 21.6321 33.0913 21.0315C33.7392 20.5751 34.1648 20.0165 34.3681 19.3559C34.5079 18.9234 34.5777 18.1006 34.5777 16.8874V15.8784Z" fill="white"/>
<path d="M62.7206 11.5901L57.1916 12.491C57.0053 11.494 56.5795 10.7432 55.9142 10.2387C55.2621 9.73423 54.4105 9.48198 53.3593 9.48198C51.9621 9.48198 50.8443 9.92042 50.006 10.7973C49.181 11.6622 48.7685 13.1156 48.7685 15.1577C48.7685 17.4279 49.1876 19.0315 50.0259 19.9685C50.8776 20.9054 52.0153 21.3739 53.4391 21.3739C54.5037 21.3739 55.3752 21.1036 56.0539 20.5631C56.7325 20.0105 57.2116 19.0676 57.491 17.7342L63 18.5811C62.4278 20.8634 61.33 22.5871 59.7066 23.7523C58.0832 24.9174 55.9075 25.5 53.1796 25.5C50.0792 25.5 47.6041 24.6171 45.7545 22.8514C43.9182 21.0856 43 18.6411 43 15.518C43 12.3589 43.9248 9.9024 45.7745 8.14865C47.6241 6.38288 50.1257 5.5 53.2794 5.5C55.8609 5.5 57.9102 6.0045 59.4271 7.01351C60.9574 8.01051 62.0552 9.53604 62.7206 11.5901Z" fill="white"/>
<path d="M70.3096 25.5H65V5.5H69.9317V8.72284C70.7757 7.40915 71.5315 6.54359 72.1991 6.12615C72.8794 5.70872 73.6478 5.5 74.5044 5.5C75.7137 5.5 76.8789 5.82535 78 6.47606L76.3561 10.988C75.4617 10.4233 74.6303 10.1409 73.8619 10.1409C73.1187 10.1409 72.4889 10.3435 71.9724 10.7486C71.4559 11.1415 71.0465 11.8597 70.7442 12.9033C70.4545 13.9469 70.3096 16.1323 70.3096 19.4595V25.5Z" fill="white"/>
<circle cx="82.5" cy="2.5" r="2.5" fill="#92F6F0"/>
<path d="M80 31V10H85V31H80Z" fill="white"/>
<path d="M87 25.5L94.6047 15.1987L87.3177 5.5H94.1282L97.861 10.9991L101.792 5.5H108.345L101.197 14.9727L109 25.5H102.15L97.861 19.3041L93.5325 25.5H87Z" fill="white"/>
</svg>
